<?xml version="1.0" encoding="UTF-8"?>
<svg id="Layer_1" data-name="Layer 1" xmlns="http://www.w3.org/2000/svg" viewBox="0 0 14.72 6.04">
  <defs>
    <style>
      .cls-1 {
        fill: #fff;
      }
    </style>
  </defs>
  <path class="cls-1" d="M3.16,0c3.19,0,3.19,5.65,0,5.65h-.76c-3.19,0-3.19-5.65.01-5.65h.76-.01ZM2.56,4.49h.42c1.81,0,1.81-3.35,0-3.35h-.42c-1.81,0-1.81,3.35,0,3.35Z"/>
  <path class="cls-1" d="M8.01,0c1.79,0,1.96,3.21.27,3.35l2.06,2.7h-1.27l-2.06-2.68v2.24h-1.21v-1.39l1.18-.85h-1.18V0h2.23-.01ZM7,2.25h.81c.59,0,.56-1.12-.06-1.12h-.75v1.12Z"/>
  <path class="cls-1" d="M12.19,5.6C8.79,5.6,8.79.05,12.19.05h2.53v1.12l-1.21,1.13v-1.13h-1.32c-1.81,0-1.81,3.32,0,3.32h1.32l-.74,1.11s-.59,0-.59,0Z"/>
</svg>