<?xml version="1.0" encoding="UTF-8"?>
<svg id="Layer_1" xmlns="http://www.w3.org/2000/svg" version="1.1" viewBox="0 0 35.8 14.7">
  <!-- Generator: Adobe Illustrator 29.3.1, SVG Export Plug-In . SVG Version: 2.1.0 Build 151)  -->
  <defs>
    <style>
      .st0, .st1, .st2 {
        opacity: .6;
      }

      .st3, .st4, .st5 {
        opacity: .9;
      }

      .st6, .st7, .st8 {
        opacity: .2;
      }

      .st6, .st9, .st10, .st11, .st12, .st2, .st13, .st5, .st14, .st15, .st16 {
        fill: none;
        stroke-miterlimit: 10;
      }

      .st6, .st9, .st10, .st12, .st2, .st13, .st5, .st14, .st15, .st16 {
        stroke: #0000f2;
      }

      .st17, .st18, .st15 {
        opacity: .3;
      }

      .st19, .st7, .st1, .st20, .st21, .st22, .st18, .st23, .st4, .st24 {
        fill: #0000f2;
      }

      .st19, .st10, .st25 {
        opacity: .5;
      }

      .st26 {
        fill: #fff;
      }

      .st27, .st9, .st24 {
        opacity: .4;
      }

      .st11 {
        stroke: #9c9ea1;
        stroke-width: .5px;
      }

      .st28, .st21, .st13 {
        opacity: .8;
      }

      .st20, .st29, .st16 {
        opacity: .7;
      }

      .st30 {
        fill: #231f20;
      }

      .st22, .st31, .st14 {
        opacity: 0;
      }
    </style>
  </defs>
  <g>
    <g>
      <path class="st26" d="M19.8,7.3c0,1.7-1,2.9-2.7,2.9s-2.7-1.2-2.7-2.9,1-2.9,2.7-2.9,2.7,1.2,2.7,2.9ZM18.9,7.3c0-1.4-.6-2.2-1.7-2.2s-1.7.8-1.7,2.2.6,2.2,1.7,2.2,1.7-.8,1.7-2.2Z"/>
      <path class="st26" d="M25.2,10.1h-1c-.1-.4-.2-.7-.3-1.3,0-.6-.3-1-.8-1-.1,0-.3,0-.4,0h-.9v2.3h-.9v-5.6h1.9c.3,0,.5,0,.8,0,.8.1,1.4.5,1.4,1.5s-.4,1.2-1,1.3c.5.2.7.7.8,1.3,0,.7.2,1.1.4,1.4ZM22.8,7.1c.2,0,.4,0,.5,0,.5,0,.8-.3.8-.9s-.3-.8-.8-.9c-.1,0-.3,0-.5,0h-1v1.9h.9Z"/>
      <path class="st26" d="M30.8,6.4h0c0,0-.9,0-.9,0h0c-.2-.8-.6-1.3-1.5-1.3s-1.7.9-1.7,2.2.7,2.2,1.7,2.2,1.3-.5,1.5-1.2h0c0,0,.9,0,.9,0h0c-.1,1.2-.9,2-2.4,2s-2.6-1.2-2.6-2.9,1.1-2.9,2.7-2.9,2.2.8,2.3,1.9Z"/>
    </g>
    <path class="st26" d="M10.6,3.6c-2.4,0-3.7,2-5.6,3.8v3.8c0,0,2.2,0,2.2,0,2.4,0,3.7-2,5.6-3.8v-3.8c0,0-2.2,0-2.2,0ZM10.6,8.4c0,.2-.2.5-.5.5h-2.9v-2.6c0-.2.2-.5.5-.5h2.9v2.6Z"/>
  </g>
  <g>
    <g class="st3">
      <rect class="st12" x="-94.1" y="-4.6" width="4.7" height="6.4"/>
      <rect class="st5" x="-89.4" y="-4.6" width="4.7" height="6.4"/>
      <rect class="st13" x="-84.7" y="-4.6" width="4.7" height="6.4"/>
      <rect class="st16" x="-79.9" y="-4.6" width="4.7" height="6.4"/>
      <rect class="st2" x="-75.2" y="-4.6" width="4.7" height="6.4"/>
      <rect class="st10" x="-70.4" y="-4.6" width="4.7" height="6.4"/>
      <rect class="st9" x="-65.7" y="-4.6" width="4.7" height="6.4"/>
      <rect class="st15" x="-61" y="-4.6" width="4.7" height="6.4"/>
      <rect class="st6" x="-56.2" y="-4.6" width="4.7" height="6.4"/>
      <rect class="st14" x="-51.5" y="-4.6" width="6.7" height="6.4"/>
    </g>
    <g>
      <path class="st30" d="M-94.1-7.1c0-.1,0-.2.1-.2s.1,0,.1.2,0,.2-.1.2-.1,0-.1-.2ZM-93.9-7.1c0,0,0-.2,0-.2s0,0,0,.2,0,.2,0,.2,0,0,0-.2Z"/>
      <path class="st30" d="M-93.7-6.9h0v-.3h0s0,0,0,0h0c0,0,0,0,0,0h0v.4Z"/>
      <path class="st30" d="M-93.6-6.9s0,0,0,0,0,0,0,0,0,0,0,0,0,0,0,0Z"/>
    </g>
    <g>
      <path class="st30" d="M-89.4-7.1c0-.1,0-.2.1-.2s.1,0,.1.2,0,.2-.1.2-.1,0-.1-.2ZM-89.2-7.1c0,0,0-.2,0-.2s0,0,0,.2,0,.2,0,.2,0,0,0-.2Z"/>
      <path class="st30" d="M-89-6.9h.1c0-.2,0-.2,0-.2s0,0,0,0,0,0,0,0h0c0,0,0-.1.1-.1s.1,0,.1.1,0,0,0,.1h0c0,0,.2,0,.2,0h0s-.2,0-.2,0h0Z"/>
      <path class="st30" d="M-88.7-6.9s0,0,0,0,0,0,0,0,0,0,0,0,0,0,0,0Z"/>
    </g>
    <g>
      <path class="st30" d="M-51.3-6.9h0v-.3h0s0,0,0,0h0c0,0,0,0,0,0h0v.4Z"/>
      <path class="st30" d="M-51.2-7.1c0-.1,0-.2.1-.2s.1,0,.1.2,0,.2-.1.2-.1,0-.1-.2ZM-51-7.1c0,0,0-.2,0-.2s0,0,0,.2,0,.2,0,.2,0,0,0-.2Z"/>
      <path class="st30" d="M-50.9-6.9s0,0,0,0,0,0,0,0,0,0,0,0,0,0,0,0Z"/>
    </g>
    <g>
      <path class="st30" d="M-56.2-7.1c0-.1,0-.2.1-.2s.1,0,.1.2,0,.2-.1.2-.1,0-.1-.2ZM-56-7.1c0,0,0-.2,0-.2s0,0,0,.2,0,.2,0,.2,0,0,0-.2Z"/>
      <path class="st30" d="M-55.6-7.1c0,.1,0,.2-.1.2s-.1,0-.1,0h0s0,0,0,0c0,0,0,0,0-.1h0s0,0,0,0c0,0-.1,0-.1-.1s0-.1.1-.1c0,0,.1,0,.1.2ZM-55.8-7.2s0,0,0,0,0,0,0,0,0,0,0,0,0,0,0,0Z"/>
      <path class="st30" d="M-55.5-6.9s0,0,0,0,0,0,0,0,0,0,0,0,0,0,0,0Z"/>
    </g>
    <g>
      <path class="st30" d="M-60.9-7.1c0-.1,0-.2.1-.2s.1,0,.1.2,0,.2-.1.2-.1,0-.1-.2ZM-60.7-7.1c0,0,0-.2,0-.2s0,0,0,.2,0,.2,0,.2,0,0,0-.2Z"/>
      <path class="st30" d="M-60.6-7s0,0,0,0h0s0,0,0,0c0,0,0,0,.1,0s.1,0,.1,0,0,0,0,0h0s0,0,0,0,0,.1-.1.1-.1,0-.1-.1ZM-60.4-7s0,0,0,0,0,0,0,0,0,0,0,0,0,0,0,0ZM-60.4-7.2s0,0,0,0,0,0,0,0,0,0,0,0,0,0,0,0Z"/>
      <path class="st30" d="M-60.3-6.9s0,0,0,0,0,0,0,0,0,0,0,0,0,0,0,0Z"/>
    </g>
    <g>
      <path class="st30" d="M-65.7-7.1c0-.1,0-.2.1-.2s.1,0,.1.2,0,.2-.1.2-.1,0-.1-.2ZM-65.5-7.1c0,0,0-.2,0-.2s0,0,0,.2,0,.2,0,.2,0,0,0-.2Z"/>
      <path class="st30" d="M-65.2-7.2h0s-.2,0-.2,0h0s.2,0,.2,0h0s-.2.4-.2.4h0l.2-.3Z"/>
      <path class="st30" d="M-65.1-6.9s0,0,0,0,0,0,0,0,0,0,0,0,0,0,0,0Z"/>
    </g>
    <g>
      <path class="st30" d="M-70.4-7.1c0-.1,0-.2.1-.2s.1,0,.1.2,0,.2-.1.2-.1,0-.1-.2ZM-70.2-7.1c0,0,0-.2,0-.2s0,0,0,.2,0,.2,0,.2,0,0,0-.2Z"/>
      <path class="st30" d="M-70.1-7.1c0-.1,0-.2.1-.2s.1,0,.1,0h0s0,0,0,0c0,0,0,0,0,.1h0s0,0,0,0c0,0,.1,0,.1.1s0,.1-.1.1c0,0-.1,0-.1-.2ZM-69.9-7s0,0,0,0,0,0,0,0,0,0,0,0,0,0,0,0Z"/>
      <path class="st30" d="M-69.8-6.9s0,0,0,0,0,0,0,0,0,0,0,0,0,0,0,0Z"/>
    </g>
    <g>
      <path class="st30" d="M-75.1-7.1c0-.1,0-.2.1-.2s.1,0,.1.2,0,.2-.1.2-.1,0-.1-.2ZM-74.9-7.1c0,0,0-.2,0-.2s0,0,0,.2,0,.2,0,.2,0,0,0-.2Z"/>
      <path class="st30" d="M-74.8-7h0s0,0,0,0,0,0,0,0,0,0,0,0c0,0,0,0,0,0h0s0-.2,0-.2h.2s-.2,0-.2,0h0c0,.1,0,.1,0,.1,0,0,0,0,0,0,0,0,.1,0,.1.1s0,.1-.1.1-.1,0-.1,0Z"/>
      <path class="st30" d="M-74.5-6.9s0,0,0,0,0,0,0,0,0,0,0,0,0,0,0,0Z"/>
    </g>
    <g>
      <path class="st30" d="M-79.9-7.1c0-.1,0-.2.1-.2s.1,0,.1.2,0,.2-.1.2-.1,0-.1-.2ZM-79.7-7.1c0,0,0-.2,0-.2s0,0,0,.2,0,.2,0,.2,0,0,0-.2Z"/>
      <path class="st30" d="M-79.6-7l.2-.3h0v.3h0s0,0,0,0h0c0,0,0,0,0,0h0c0,0-.2,0-.2,0h0ZM-79.4-7.2h0v.2c-.1,0-.1,0-.1,0h.1v-.2Z"/>
      <path class="st30" d="M-79.3-6.9s0,0,0,0,0,0,0,0,0,0,0,0,0,0,0,0Z"/>
    </g>
    <g>
      <path class="st30" d="M-84.6-7.1c0-.1,0-.2.1-.2s.1,0,.1.2,0,.2-.1.2-.1,0-.1-.2ZM-84.4-7.1c0,0,0-.2,0-.2s0,0,0,.2,0,.2,0,.2,0,0,0-.2Z"/>
      <path class="st30" d="M-84.3-7h0s0,0,0,0,0,0,0,0,0,0,0,0h0s0,0,0,0c0,0,0,0,0,0s0,0,0,0,0,0,0,0h0c0,0,0,0,.1,0s.1,0,.1.1,0,0,0,0h0s0,0,0,0,0,.1-.1.1-.1,0-.1,0Z"/>
      <path class="st30" d="M-84-6.9s0,0,0,0,0,0,0,0,0,0,0,0,0,0,0,0Z"/>
    </g>
    <g>
      <path class="st23" d="M-90.3.6h0c0,0-.3,0-.3,0h0s0,0,0,.1h0c0,0,0-.1,0-.1h0c0,0,.5,0,.5,0Z"/>
      <path class="st23" d="M-90.5.5c-.2,0-.2,0-.2-.2s0-.2.2-.2c.2,0,.2,0,.2.2s0,.2-.2.2ZM-90.5.3c-.1,0-.2,0-.2,0s0,0,.2,0c.1,0,.2,0,.2,0s0,0-.2,0Z"/>
      <path class="st23" d="M-90.5.1c-.2,0-.2,0-.2-.2s0-.2.2-.2c.2,0,.2,0,.2.2s0,.2-.2.2ZM-90.5-.2c-.1,0-.2,0-.2,0s0,0,.2,0c.1,0,.2,0,.2,0s0,0-.2,0Z"/>
      <path class="st23" d="M-90.7-.4c0,0-.1,0-.1-.1s0-.1.1-.1h0c0,0,.1,0,.1.1s0,.1-.1.1h0ZM-90.8-.7h0c0,0,.5.3.5.3h0c0,0-.5-.3-.5-.3ZM-90.7-.4s0,0,0,0,0,0,0,0h0s0,0,0,0,0,0,0,0h0ZM-90.4-.6c0,0-.1,0-.1-.1s0-.1.1-.1h0c0,0,.1,0,.1.1s0,.1-.1.1h0ZM-90.4-.7s0,0,0,0,0,0,0,0h0s0,0,0,0,0,0,0,0h0Z"/>
    </g>
    <g>
      <path class="st23" d="M-85.8.3c.2,0,.3,0,.3.2s0,.2-.1.2h0c0-.1,0-.1,0-.2,0,0,0,0-.1,0h0s0,0,0,.1c0,0,0,.1-.2.1,0,0-.2,0-.2-.2,0,0,0-.2.2-.2ZM-85.9.6s0,0,0,0,0,0,0,0c0,0,0,0,0,0s0,0,0,0Z"/>
      <path class="st23" d="M-85.8.3c-.2,0-.2,0-.2-.2s0-.2.2-.2c.2,0,.2,0,.2.2s0,.2-.2.2ZM-85.8,0c-.1,0-.2,0-.2,0s0,0,.2,0c.1,0,.2,0,.2,0s0,0-.2,0Z"/>
      <path class="st23" d="M-85.9-.2c0,0-.1,0-.1-.1s0-.1.1-.1h0c0,0,.1,0,.1.1s0,.1-.1.1h0ZM-86-.5h0c0,0,.5.3.5.3h0c0,0-.5-.3-.5-.3ZM-85.9-.3s0,0,0,0,0,0,0,0h0s0,0,0,0,0,0,0,0h0ZM-85.7-.4c0,0-.1,0-.1-.1s0-.1.1-.1h0c0,0,.1,0,.1.1s0,.1-.1.1h0ZM-85.6-.5s0,0,0,0,0,0,0,0h0s0,0,0,0,0,0,0,0h0Z"/>
    </g>
    <g>
      <path class="st23" d="M-80.9.7c0,0-.1,0-.1-.1h0s0,0-.1,0-.1,0-.1-.2,0-.2.1-.2c0,0,0,0,.1,0h0c0,0,0-.1.1-.1,0,0,.1,0,.1.2s0,.2-.1.2ZM-81.2.4s0,0,0,0,0,0,0,0,0,0,0,0,0,0,0,0ZM-81,.4s0,0,0,0,0,0,0,0,0,0,0,0,0,0,0,0Z"/>
      <path class="st23" d="M-81.1.3c-.2,0-.2,0-.2-.2s0-.2.2-.2c.2,0,.2,0,.2.2s0,.2-.2.2ZM-81.1,0c-.1,0-.2,0-.2,0s0,0,.2,0c.1,0,.2,0,.2,0s0,0-.2,0Z"/>
      <path class="st23" d="M-81.2-.2c0,0-.1,0-.1-.1s0-.1.1-.1h0c0,0,.1,0,.1.1s0,.1-.1.1h0ZM-81.3-.5h0c0,0,.5.3.5.3h0c0,0-.5-.3-.5-.3ZM-81.2-.3s0,0,0,0,0,0,0,0h0s0,0,0,0,0,0,0,0h0ZM-80.9-.4c0,0-.1,0-.1-.1s0-.1.1-.1h0c0,0,.1,0,.1.1s0,.1-.1.1h0ZM-80.9-.5s0,0,0,0,0,0,0,0h0s0,0,0,0,0,0,0,0h0Z"/>
    </g>
    <g>
      <path class="st23" d="M-76.5.4h0v.2h0v-.3h0l.4.2h0c0,.1-.4,0-.4,0Z"/>
      <path class="st23" d="M-76.3.3c-.2,0-.2,0-.2-.2s0-.2.2-.2c.2,0,.2,0,.2.2s0,.2-.2.2ZM-76.3,0c-.1,0-.2,0-.2,0s0,0,.2,0c.1,0,.2,0,.2,0s0,0-.2,0Z"/>
      <path class="st23" d="M-76.5-.2c0,0-.1,0-.1-.1s0-.1.1-.1h0c0,0,.1,0,.1.1s0,.1-.1.1h0ZM-76.5-.5h0c0,0,.5.3.5.3h0c0,0-.5-.3-.5-.3ZM-76.4-.2s0,0,0,0,0,0,0,0h0s0,0,0,0,0,0,0,0h0ZM-76.2-.4c0,0-.1,0-.1-.1s0-.1.1-.1h0c0,0,.1,0,.1.1s0,.1-.1.1h0ZM-76.2-.5s0,0,0,0,0,0,0,0h0s0,0,0,0,0,0,0,0h0Z"/>
    </g>
    <g>
      <path class="st23" d="M-71.6.7c-.2,0-.3,0-.3-.2s0-.2.1-.2h0c0,.1,0,.1,0,.2,0,0,0,0,.1,0h0s0,0,0-.1c0,0,0-.1.2-.1,0,0,.2,0,.2.2,0,0,0,.2-.2.2ZM-71.5.4s0,0,0,0,0,0,0,0c0,0,0,0,0,0s0,0,0,0Z"/>
      <path class="st23" d="M-71.6.3c-.2,0-.2,0-.2-.2s0-.2.2-.2c.2,0,.2,0,.2.2s0,.2-.2.2ZM-71.6,0c-.1,0-.2,0-.2,0s0,0,.2,0c.1,0,.2,0,.2,0s0,0-.2,0Z"/>
      <path class="st23" d="M-71.7-.2c0,0-.1,0-.1-.1s0-.1.1-.1h0c0,0,.1,0,.1.1s0,.1-.1.1h0ZM-71.8-.5h0c0,0,.5.3.5.3h0c0,0-.5-.3-.5-.3ZM-71.7-.3s0,0,0,0,0,0,0,0h0s0,0,0,0,0,0,0,0h0ZM-71.5-.4c0,0-.1,0-.1-.1s0-.1.1-.1h0c0,0,.1,0,.1.1s0,.1-.1.1h0ZM-71.4-.5s0,0,0,0,0,0,0,0h0s0,0,0,0,0,0,0,0h0Z"/>
    </g>
    <g>
      <path class="st23" d="M-66.7.7h0c0,0,0-.1,0-.2s0,0,0,0,0,0,0,0,0,0,0,0h0c0,0-.2,0-.2,0v-.3h0v.2h.1s0,0,0,0c0,0,0,0,0,0,0,0,0-.1.2-.1s.2,0,.2.2,0,.2-.1.2Z"/>
      <path class="st23" d="M-66.8.3c-.2,0-.2,0-.2-.2s0-.2.2-.2c.2,0,.2,0,.2.2s0,.2-.2.2ZM-66.8,0c-.1,0-.2,0-.2,0s0,0,.2,0c.1,0,.2,0,.2,0s0,0-.2,0Z"/>
      <path class="st23" d="M-67-.2c0,0-.1,0-.1-.1s0-.1.1-.1h0c0,0,.1,0,.1.1s0,.1-.1.1h0ZM-67.1-.5h0c0,0,.5.3.5.3h0c0,0-.5-.3-.5-.3ZM-67-.3s0,0,0,0,0,0,0,0h0s0,0,0,0,0,0,0,0h0ZM-66.7-.4c0,0-.1,0-.1-.1s0-.1.1-.1h0c0,0,.1,0,.1.1s0,.1-.1.1h0ZM-66.7-.5s0,0,0,0,0,0,0,0h0s0,0,0,0,0,0,0,0h0Z"/>
    </g>
    <g>
      <path class="st23" d="M-62,.7l-.3-.2h0c0-.1.3-.1.3-.1h0c0,0,0,0,0,0h0c0,0,0,0,0,0h0c0,0,0,0,0,0v.2h0ZM-62.2.5h0s.2.1.2.1h0c0-.1-.2-.1-.2-.1Z"/>
      <path class="st23" d="M-62.1.3c-.2,0-.2,0-.2-.2s0-.2.2-.2c.2,0,.2,0,.2.2s0,.2-.2.2ZM-62.1,0c-.1,0-.2,0-.2,0s0,0,.2,0c.1,0,.2,0,.2,0s0,0-.2,0Z"/>
      <path class="st23" d="M-62.2-.2c0,0-.1,0-.1-.1s0-.1.1-.1h0c0,0,.1,0,.1.1s0,.1-.1.1h0ZM-62.3-.6h0c0,0,.5.3.5.3h0c0,0-.5-.3-.5-.3ZM-62.2-.3s0,0,0,0,0,0,0,0h0s0,0,0,0,0,0,0,0h0ZM-62-.4c0,0-.1,0-.1-.1s0-.1.1-.1h0c0,0,.1,0,.1.1s0,.1-.1.1h0ZM-62-.5s0,0,0,0,0,0,0,0h0s0,0,0,0,0,0,0,0h0Z"/>
    </g>
    <g>
      <path class="st23" d="M-57.3.7h0c0-.1,0-.1,0-.2s0,0,0,0c0,0,0,0,0,0h0s0,0,0,0h0c0,0,0-.1,0-.1s0,0,0,0,0,0,0,0h0c0,0-.1,0-.1,0s0-.2.1-.2c0,0,0,0,0,0h0c0,0,0-.1.1-.1,0,0,.1,0,.1.2s0,.2-.1.2Z"/>
      <path class="st23" d="M-57.4.3c-.2,0-.2,0-.2-.2s0-.2.2-.2c.2,0,.2,0,.2.2,0,.1,0,.2-.2.2ZM-57.4,0c-.1,0-.2,0-.2,0s0,0,.2,0c.1,0,.2,0,.2,0s0,0-.2,0Z"/>
      <path class="st23" d="M-57.5-.2c0,0-.1,0-.1-.1s0-.1.1-.1h0c0,0,.1,0,.1.1s0,.1-.1.1h0ZM-57.6-.5h0c0,0,.5.3.5.3h0c0,0-.5-.3-.5-.3ZM-57.5-.3s0,0,0,0,0,0,0,0h0s0,0,0,0,0,0,0,0h0ZM-57.2-.4c0,0-.1,0-.1-.1s0-.1.1-.1h0c0,0,.1,0,.1.1s0,.1-.1.1h0ZM-57.2-.5s0,0,0,0,0,0,0,0h0s0,0,0,0,0,0,0,0h0Z"/>
    </g>
    <g>
      <path class="st23" d="M-52.5.7l-.2-.2s0,0-.1,0,0,0,0,0,0,0,0,0h0c0,0-.2,0-.2,0s0-.2.1-.2,0,0,.2.1h0c0,0,0,0,0,0v-.2h0v.3h0Z"/>
      <path class="st23" d="M-52.6.3c-.2,0-.2,0-.2-.2s0-.2.2-.2c.2,0,.2,0,.2.2,0,.1,0,.2-.2.2ZM-52.6,0c-.1,0-.2,0-.2,0s0,0,.2,0c.1,0,.2,0,.2,0s0,0-.2,0Z"/>
      <path class="st23" d="M-52.8-.2c0,0-.1,0-.1-.1s0-.1.1-.1h0c0,0,.1,0,.1.1s0,.1-.1.1h0ZM-52.9-.5h0c0,0,.5.3.5.3h0c0,0-.5-.3-.5-.3ZM-52.7-.3s0,0,0,0,0,0,0,0h0s0,0,0,0,0,0,0,0h0ZM-52.5-.4c0,0-.1,0-.1-.1s0-.1.1-.1h0c0,0,.1,0,.1.1s0,.1-.1.1h0ZM-52.5-.5s0,0,0,0,0,0,0,0h0s0,0,0,0,0,0,0,0h0Z"/>
    </g>
    <g>
      <path class="st23" d="M-47.6.4h0c0,0-.3,0-.3,0h0s0,0,0,.1h0c0,0,0-.1,0-.1h0c0,0,.5,0,.5,0Z"/>
      <path class="st23" d="M-47.9.3c-.2,0-.2,0-.2-.2s0-.2.2-.2c.2,0,.2,0,.2.2,0,.1,0,.2-.2.2ZM-47.9,0c-.1,0-.2,0-.2,0s0,0,.2,0c.1,0,.2,0,.2,0s0,0-.2,0Z"/>
      <path class="st23" d="M-48-.1c0,0-.1,0-.1-.1s0-.1.1-.1h0c0,0,.1,0,.1.1s0,.1-.1.1h0ZM-48.1-.5h0c0,0,.5.3.5.3h0c0,0-.5-.3-.5-.3ZM-48-.2s0,0,0,0,0,0,0,0h0s0,0,0,0,0,0,0,0h0ZM-47.8-.4c0,0-.1,0-.1-.1s0-.1.1-.1h0c0,0,.1,0,.1.1s0,.1-.1.1h0ZM-47.7-.4s0,0,0,0,0,0,0,0h0s0,0,0,0,0,0,0,0h0Z"/>
    </g>
    <g>
      <rect class="st23" x="-94.1" y="2.5" width="4.7" height="6.4"/>
      <rect class="st4" x="-89.4" y="2.5" width="4.7" height="6.4"/>
      <rect class="st21" x="-84.7" y="2.5" width="4.7" height="6.4"/>
      <rect class="st20" x="-79.9" y="2.5" width="4.7" height="6.4"/>
      <rect class="st1" x="-75.2" y="2.5" width="4.7" height="6.4"/>
      <rect class="st19" x="-70.4" y="2.5" width="4.7" height="6.4"/>
      <rect class="st24" x="-65.7" y="2.5" width="4.7" height="6.4"/>
      <rect class="st18" x="-61" y="2.5" width="4.7" height="6.4"/>
      <rect class="st7" x="-56.2" y="2.5" width="4.7" height="6.4"/>
      <rect class="st22" x="-51.5" y="2.5" width="6.7" height="6.4"/>
    </g>
    <g>
      <path class="st26" d="M-90.3,7.7h0c0,0-.3,0-.3,0h0s0,0,0,.1h0c0,0,0-.1,0-.1h0c0,0,.5,0,.5,0Z"/>
      <path class="st26" d="M-90.5,7.6c-.2,0-.2,0-.2-.2s0-.2.2-.2c.2,0,.2,0,.2.2s0,.2-.2.2ZM-90.5,7.3c-.1,0-.2,0-.2,0s0,0,.2,0c.1,0,.2,0,.2,0s0,0-.2,0Z"/>
      <path class="st26" d="M-90.5,7.2c-.2,0-.2,0-.2-.2s0-.2.2-.2c.2,0,.2,0,.2.2s0,.2-.2.2ZM-90.5,6.9c-.1,0-.2,0-.2,0s0,0,.2,0c.1,0,.2,0,.2,0s0,0-.2,0Z"/>
      <path class="st26" d="M-90.7,6.7c0,0-.1,0-.1-.1s0-.1.1-.1h0c0,0,.1,0,.1.1s0,.1-.1.1h0ZM-90.8,6.4h0c0,0,.5.3.5.3h0c0,0-.5-.3-.5-.3ZM-90.7,6.7s0,0,0,0,0,0,0,0h0s0,0,0,0,0,0,0,0h0ZM-90.4,6.5c0,0-.1,0-.1-.1s0-.1.1-.1h0c0,0,.1,0,.1.1s0,.1-.1.1h0ZM-90.4,6.4s0,0,0,0,0,0,0,0h0s0,0,0,0,0,0,0,0h0Z"/>
    </g>
    <g>
      <path class="st26" d="M-85.8,7.4c.2,0,.3,0,.3.2s0,.2-.1.2h0c0-.1,0-.1,0-.2,0,0,0,0-.1,0h0s0,0,0,.1c0,0,0,.1-.2.1,0,0-.2,0-.2-.2,0,0,0-.2.2-.2ZM-85.9,7.7s0,0,0,0,0,0,0,0c0,0,0,0,0,0s0,0,0,0Z"/>
      <path class="st26" d="M-85.8,7.3c-.2,0-.2,0-.2-.2s0-.2.2-.2c.2,0,.2,0,.2.2s0,.2-.2.2ZM-85.8,7.1c-.1,0-.2,0-.2,0s0,0,.2,0c.1,0,.2,0,.2,0s0,0-.2,0Z"/>
      <path class="st26" d="M-85.9,6.9c0,0-.1,0-.1-.1s0-.1.1-.1h0c0,0,.1,0,.1.1s0,.1-.1.1h0ZM-86,6.5h0c0,0,.5.3.5.3h0c0,0-.5-.3-.5-.3ZM-85.9,6.8s0,0,0,0,0,0,0,0h0s0,0,0,0,0,0,0,0h0ZM-85.7,6.6c0,0-.1,0-.1-.1s0-.1.1-.1h0c0,0,.1,0,.1.1s0,.1-.1.1h0ZM-85.6,6.6s0,0,0,0,0,0,0,0h0s0,0,0,0,0,0,0,0h0Z"/>
    </g>
    <g>
      <path class="st26" d="M-80.9,7.8c0,0-.1,0-.1-.1h0s0,0-.1,0-.1,0-.1-.2,0-.2.1-.2c0,0,0,0,.1,0h0c0,0,0-.1.1-.1,0,0,.1,0,.1.2s0,.2-.1.2ZM-81.2,7.5s0,0,0,0,0,0,0,0,0,0,0,0,0,0,0,0ZM-81,7.5s0,0,0,0,0,0,0,0,0,0,0,0,0,0,0,0Z"/>
      <path class="st26" d="M-81.1,7.3c-.2,0-.2,0-.2-.2s0-.2.2-.2c.2,0,.2,0,.2.2s0,.2-.2.2ZM-81.1,7.1c-.1,0-.2,0-.2,0s0,0,.2,0c.1,0,.2,0,.2,0s0,0-.2,0Z"/>
      <path class="st26" d="M-81.2,6.9c0,0-.1,0-.1-.1s0-.1.1-.1h0c0,0,.1,0,.1.1s0,.1-.1.1h0ZM-81.3,6.5h0c0,0,.5.3.5.3h0c0,0-.5-.3-.5-.3ZM-81.2,6.8s0,0,0,0,0,0,0,0h0s0,0,0,0,0,0,0,0h0ZM-80.9,6.6c0,0-.1,0-.1-.1s0-.1.1-.1h0c0,0,.1,0,.1.1s0,.1-.1.1h0ZM-80.9,6.6s0,0,0,0,0,0,0,0h0s0,0,0,0,0,0,0,0h0Z"/>
    </g>
    <g>
      <path class="st26" d="M-76.5,7.5h0v.2h0v-.3h0l.4.2h0c0,.1-.4,0-.4,0Z"/>
      <path class="st26" d="M-76.3,7.4c-.2,0-.2,0-.2-.2s0-.2.2-.2c.2,0,.2,0,.2.2s0,.2-.2.2ZM-76.3,7.1c-.1,0-.2,0-.2,0s0,0,.2,0c.1,0,.2,0,.2,0s0,0-.2,0Z"/>
      <path class="st26" d="M-76.5,6.9c0,0-.1,0-.1-.1s0-.1.1-.1h0c0,0,.1,0,.1.1s0,.1-.1.1h0ZM-76.5,6.6h0c0,0,.5.3.5.3h0c0,0-.5-.3-.5-.3ZM-76.4,6.8s0,0,0,0,0,0,0,0h0s0,0,0,0,0,0,0,0h0ZM-76.2,6.7c0,0-.1,0-.1-.1s0-.1.1-.1h0c0,0,.1,0,.1.1s0,.1-.1.1h0ZM-76.2,6.6s0,0,0,0,0,0,0,0h0s0,0,0,0,0,0,0,0h0Z"/>
    </g>
    <g>
      <path class="st26" d="M-71.6,7.8c-.2,0-.3,0-.3-.2s0-.2.1-.2h0c0,.1,0,.1,0,.2,0,0,0,0,.1,0h0s0,0,0-.1c0,0,0-.1.2-.1,0,0,.2,0,.2.2,0,0,0,.2-.2.2ZM-71.5,7.5s0,0,0,0,0,0,0,0c0,0,0,0,0,0s0,0,0,0Z"/>
      <path class="st26" d="M-71.6,7.3c-.2,0-.2,0-.2-.2s0-.2.2-.2c.2,0,.2,0,.2.2s0,.2-.2.2ZM-71.6,7.1c-.1,0-.2,0-.2,0s0,0,.2,0c.1,0,.2,0,.2,0s0,0-.2,0Z"/>
      <path class="st26" d="M-71.7,6.9c0,0-.1,0-.1-.1s0-.1.1-.1h0c0,0,.1,0,.1.1s0,.1-.1.1h0ZM-71.8,6.5h0c0,0,.5.3.5.3h0c0,0-.5-.3-.5-.3ZM-71.7,6.8s0,0,0,0,0,0,0,0h0s0,0,0,0,0,0,0,0h0ZM-71.5,6.6c0,0-.1,0-.1-.1s0-.1.1-.1h0c0,0,.1,0,.1.1s0,.1-.1.1h0ZM-71.4,6.6s0,0,0,0,0,0,0,0h0s0,0,0,0,0,0,0,0h0Z"/>
    </g>
    <g>
      <path class="st26" d="M-66.7,7.8h0c0,0,0-.1,0-.2s0,0,0,0,0,0,0,0,0,0,0,0h0c0,0-.2,0-.2,0v-.3h0v.2h.1s0,0,0,0c0,0,0,0,0,0,0,0,0-.1.2-.1s.2,0,.2.2,0,.2-.1.2Z"/>
      <path class="st26" d="M-66.8,7.3c-.2,0-.2,0-.2-.2s0-.2.2-.2c.2,0,.2,0,.2.2s0,.2-.2.2ZM-66.8,7.1c-.1,0-.2,0-.2,0s0,0,.2,0c.1,0,.2,0,.2,0s0,0-.2,0Z"/>
      <path class="st26" d="M-67,6.9c0,0-.1,0-.1-.1s0-.1.1-.1h0c0,0,.1,0,.1.1s0,.1-.1.1h0ZM-67.1,6.5h0c0,0,.5.3.5.3h0c0,0-.5-.3-.5-.3ZM-67,6.8s0,0,0,0,0,0,0,0h0s0,0,0,0,0,0,0,0h0ZM-66.7,6.6c0,0-.1,0-.1-.1s0-.1.1-.1h0c0,0,.1,0,.1.1s0,.1-.1.1h0ZM-66.7,6.6s0,0,0,0,0,0,0,0h0s0,0,0,0,0,0,0,0h0Z"/>
    </g>
    <g>
      <path class="st26" d="M-62,7.8l-.3-.2h0c0-.1.3-.1.3-.1h0c0,0,0,0,0,0h0c0,0,0,0,0,0h0c0,0,0,0,0,0v.2h0ZM-62.2,7.5h0s.2.1.2.1h0c0-.1-.2-.1-.2-.1Z"/>
      <path class="st26" d="M-62.1,7.3c-.2,0-.2,0-.2-.2s0-.2.2-.2c.2,0,.2,0,.2.2s0,.2-.2.2ZM-62.1,7.1c-.1,0-.2,0-.2,0s0,0,.2,0c.1,0,.2,0,.2,0s0,0-.2,0Z"/>
      <path class="st26" d="M-62.2,6.9c0,0-.1,0-.1-.1s0-.1.1-.1h0c0,0,.1,0,.1.1s0,.1-.1.1h0ZM-62.3,6.5h0c0,0,.5.3.5.3h0c0,0-.5-.3-.5-.3ZM-62.2,6.8s0,0,0,0,0,0,0,0h0s0,0,0,0,0,0,0,0h0ZM-62,6.6c0,0-.1,0-.1-.1s0-.1.1-.1h0c0,0,.1,0,.1.1s0,.1-.1.1h0ZM-62,6.6s0,0,0,0,0,0,0,0h0s0,0,0,0,0,0,0,0h0Z"/>
    </g>
    <g>
      <path class="st26" d="M-57.3,7.8h0c0-.1,0-.1,0-.2s0,0,0,0c0,0,0,0,0,0h0s0,0,0,0h0c0,0,0-.1,0-.1s0,0,0,0,0,0,0,0h0c0,0-.1,0-.1,0s0-.2.1-.2c0,0,0,0,0,0h0c0,0,0-.1.1-.1s.1,0,.1.2,0,.2-.1.2Z"/>
      <path class="st26" d="M-57.4,7.3c-.2,0-.2,0-.2-.2s0-.2.2-.2c.2,0,.2,0,.2.2,0,.1,0,.2-.2.2ZM-57.4,7.1c-.1,0-.2,0-.2,0s0,0,.2,0c.1,0,.2,0,.2,0s0,0-.2,0Z"/>
      <path class="st26" d="M-57.5,6.9c0,0-.1,0-.1-.1s0-.1.1-.1h0c0,0,.1,0,.1.1s0,.1-.1.1h0ZM-57.6,6.5h0c0,0,.5.3.5.3h0c0,0-.5-.3-.5-.3ZM-57.5,6.8s0,0,0,0,0,0,0,0h0s0,0,0,0,0,0,0,0h0ZM-57.2,6.6c0,0-.1,0-.1-.1s0-.1.1-.1h0c0,0,.1,0,.1.1s0,.1-.1.1h0ZM-57.2,6.6s0,0,0,0,0,0,0,0h0s0,0,0,0,0,0,0,0h0Z"/>
    </g>
    <g>
      <path class="st26" d="M-52.5,7.7l-.2-.2s0,0-.1,0,0,0,0,0,0,0,0,0h0c0,0-.2,0-.2,0s0-.2.1-.2,0,0,.2.1h0c0,0,0,0,0,0v-.2h0v.3h0Z"/>
      <path class="st26" d="M-52.6,7.4c-.2,0-.2,0-.2-.2s0-.2.2-.2c.2,0,.2,0,.2.2,0,.1,0,.2-.2.2ZM-52.6,7.1c-.1,0-.2,0-.2,0s0,0,.2,0c.1,0,.2,0,.2,0s0,0-.2,0Z"/>
      <path class="st26" d="M-52.8,6.9c0,0-.1,0-.1-.1s0-.1.1-.1h0c0,0,.1,0,.1.1s0,.1-.1.1h0ZM-52.9,6.5h0c0,0,.5.3.5.3h0c0,0-.5-.3-.5-.3ZM-52.7,6.8s0,0,0,0,0,0,0,0h0s0,0,0,0,0,0,0,0h0ZM-52.5,6.7c0,0-.1,0-.1-.1s0-.1.1-.1h0c0,0,.1,0,.1.1s0,.1-.1.1h0ZM-52.5,6.6s0,0,0,0,0,0,0,0h0s0,0,0,0,0,0,0,0h0Z"/>
    </g>
    <g>
      <path class="st26" d="M-47.6,7.5h0c0,0-.3,0-.3,0h0s0,0,0,.1h0c0,0,0-.1,0-.1h0c0,0,.5,0,.5,0Z"/>
      <path class="st26" d="M-47.9,7.4c-.2,0-.2,0-.2-.2s0-.2.2-.2c.2,0,.2,0,.2.2,0,.1,0,.2-.2.2ZM-47.9,7.1c-.1,0-.2,0-.2,0s0,0,.2,0c.1,0,.2,0,.2,0s0,0-.2,0Z"/>
      <path class="st26" d="M-48,6.9c0,0-.1,0-.1-.1s0-.1.1-.1h0c0,0,.1,0,.1.1s0,.1-.1.1h0ZM-48.1,6.6h0c0,0,.5.3.5.3h0c0,0-.5-.3-.5-.3ZM-48,6.9s0,0,0,0,0,0,0,0h0s0,0,0,0,0,0,0,0h0ZM-47.8,6.7c0,0-.1,0-.1-.1s0-.1.1-.1h0c0,0,.1,0,.1.1s0,.1-.1.1h0ZM-47.7,6.6s0,0,0,0,0,0,0,0h0s0,0,0,0,0,0,0,0h0Z"/>
    </g>
    <g>
      <rect x="-94.1" y="9.6" width="4.7" height="6.4"/>
      <rect class="st3" x="-89.4" y="9.6" width="4.7" height="6.4"/>
      <rect class="st28" x="-84.7" y="9.6" width="4.7" height="6.4"/>
      <rect class="st29" x="-79.9" y="9.6" width="4.7" height="6.4"/>
      <rect class="st0" x="-75.2" y="9.6" width="4.7" height="6.4"/>
      <rect class="st25" x="-70.4" y="9.6" width="4.7" height="6.4"/>
      <rect class="st27" x="-65.7" y="9.6" width="4.7" height="6.4"/>
      <rect class="st17" x="-61" y="9.6" width="4.7" height="6.4"/>
      <rect class="st8" x="-56.2" y="9.6" width="4.7" height="6.4"/>
      <rect class="st31" x="-51.5" y="9.6" width="6.7" height="6.4"/>
    </g>
    <g>
      <path class="st26" d="M-90.3,14.8h0c0,0-.3,0-.3,0h0s0,0,0,0h0c0,0,0-.1,0-.1h0c0,0,.5,0,.5,0Z"/>
      <path class="st26" d="M-90.5,14.7c-.2,0-.2,0-.2-.2s0-.2.2-.2.2,0,.2.2,0,.2-.2.2ZM-90.5,14.4c-.1,0-.2,0-.2,0s0,0,.2,0c.1,0,.2,0,.2,0s0,0-.2,0Z"/>
      <path class="st26" d="M-90.5,14.3c-.2,0-.2,0-.2-.2s0-.2.2-.2.2,0,.2.2,0,.2-.2.2ZM-90.5,14c-.1,0-.2,0-.2,0s0,0,.2,0c.1,0,.2,0,.2,0s0,0-.2,0Z"/>
      <path class="st26" d="M-90.7,13.8c0,0-.1,0-.1-.1s0-.1.1-.1h0c0,0,.1,0,.1.1s0,.1-.1.1h0ZM-90.8,13.5h0c0,0,.5.3.5.3h0c0,0-.5-.3-.5-.3ZM-90.7,13.7s0,0,0,0,0,0,0,0h0s0,0,0,0,0,0,0,0h0ZM-90.4,13.6c0,0-.1,0-.1-.1s0-.1.1-.1h0c0,0,.1,0,.1.1s0,.1-.1.1h0ZM-90.4,13.5s0,0,0,0,0,0,0,0h0s0,0,0,0,0,0,0,0h0Z"/>
    </g>
    <g>
      <path class="st26" d="M-85.8,14.5c.2,0,.3,0,.3.2s0,.2-.1.2h0c0-.1,0-.1,0-.2,0,0,0,0-.1,0h0s0,0,0,.1c0,0,0,.1-.2.1s-.2,0-.2-.2c0,0,0-.2.2-.2ZM-85.9,14.8s0,0,0,0,0,0,0,0c0,0,0,0,0,0s0,0,0,0Z"/>
      <path class="st26" d="M-85.8,14.4c-.2,0-.2,0-.2-.2s0-.2.2-.2.2,0,.2.2,0,.2-.2.2ZM-85.8,14.1c-.1,0-.2,0-.2,0s0,0,.2,0c.1,0,.2,0,.2,0s0,0-.2,0Z"/>
      <path class="st26" d="M-85.9,14c0,0-.1,0-.1-.1s0-.1.1-.1h0c0,0,.1,0,.1.1s0,.1-.1.1h0ZM-86,13.6h0c0,0,.5.3.5.3h0c0,0-.5-.3-.5-.3ZM-85.9,13.9s0,0,0,0,0,0,0,0h0s0,0,0,0,0,0,0,0h0ZM-85.7,13.7c0,0-.1,0-.1-.1s0-.1.1-.1h0c0,0,.1,0,.1.1s0,.1-.1.1h0ZM-85.6,13.7s0,0,0,0,0,0,0,0h0s0,0,0,0,0,0,0,0h0Z"/>
    </g>
    <g>
      <path class="st26" d="M-80.9,14.8c0,0-.1,0-.1-.1h0s0,0-.1,0c0,0-.1,0-.1-.2s0-.2.1-.2,0,0,.1,0h0c0,0,0-.1.1-.1s.1,0,.1.2,0,.2-.1.2ZM-81.2,14.6s0,0,0,0,0,0,0,0,0,0,0,0,0,0,0,0ZM-81,14.6s0,0,0,0,0,0,0,0,0,0,0,0,0,0,0,0Z"/>
      <path class="st26" d="M-81.1,14.4c-.2,0-.2,0-.2-.2s0-.2.2-.2.2,0,.2.2,0,.2-.2.2ZM-81.1,14.1c-.1,0-.2,0-.2,0s0,0,.2,0c.1,0,.2,0,.2,0s0,0-.2,0Z"/>
      <path class="st26" d="M-81.2,14c0,0-.1,0-.1-.1s0-.1.1-.1h0c0,0,.1,0,.1.1s0,.1-.1.1h0ZM-81.3,13.6h0c0,0,.5.3.5.3h0c0,0-.5-.3-.5-.3ZM-81.2,13.9s0,0,0,0,0,0,0,0h0s0,0,0,0,0,0,0,0h0ZM-80.9,13.7c0,0-.1,0-.1-.1s0-.1.1-.1h0c0,0,.1,0,.1.1s0,.1-.1.1h0ZM-80.9,13.7s0,0,0,0,0,0,0,0h0s0,0,0,0,0,0,0,0h0Z"/>
    </g>
    <g>
      <path class="st26" d="M-76.5,14.6h0v.2h0v-.3h0l.4.2h0c0,.1-.4,0-.4,0Z"/>
      <path class="st26" d="M-76.3,14.5c-.2,0-.2,0-.2-.2s0-.2.2-.2.2,0,.2.2,0,.2-.2.2ZM-76.3,14.2c-.1,0-.2,0-.2,0s0,0,.2,0c.1,0,.2,0,.2,0s0,0-.2,0Z"/>
      <path class="st26" d="M-76.5,14c0,0-.1,0-.1-.1s0-.1.1-.1h0c0,0,.1,0,.1.1s0,.1-.1.1h0ZM-76.5,13.6h0c0,0,.5.3.5.3h0c0,0-.5-.3-.5-.3ZM-76.4,13.9s0,0,0,0,0,0,0,0h0s0,0,0,0,0,0,0,0h0ZM-76.2,13.7c0,0-.1,0-.1-.1s0-.1.1-.1h0c0,0,.1,0,.1.1s0,.1-.1.1h0ZM-76.2,13.7s0,0,0,0,0,0,0,0h0s0,0,0,0,0,0,0,0h0Z"/>
    </g>
    <g>
      <path class="st26" d="M-71.6,14.8c-.2,0-.3,0-.3-.2s0-.2.1-.2h0c0,.1,0,.1,0,.2,0,0,0,0,.1,0h0s0,0,0-.1c0,0,0-.1.2-.1s.2,0,.2.2c0,0,0,.2-.2.2ZM-71.5,14.6s0,0,0,0,0,0,0,0,0,0,0,0,0,0,0,0Z"/>
      <path class="st26" d="M-71.6,14.4c-.2,0-.2,0-.2-.2s0-.2.2-.2.2,0,.2.2,0,.2-.2.2ZM-71.6,14.1c-.1,0-.2,0-.2,0s0,0,.2,0c.1,0,.2,0,.2,0s0,0-.2,0Z"/>
      <path class="st26" d="M-71.7,14c0,0-.1,0-.1-.1s0-.1.1-.1h0c0,0,.1,0,.1.1s0,.1-.1.1h0ZM-71.8,13.6h0c0,0,.5.3.5.3h0c0,0-.5-.3-.5-.3ZM-71.7,13.9s0,0,0,0,0,0,0,0h0s0,0,0,0,0,0,0,0h0ZM-71.5,13.7c0,0-.1,0-.1-.1s0-.1.1-.1h0c0,0,.1,0,.1.1s0,.1-.1.1h0ZM-71.4,13.7s0,0,0,0,0,0,0,0h0s0,0,0,0,0,0,0,0h0Z"/>
    </g>
    <g>
      <path class="st26" d="M-66.7,14.8h0c0,0,0-.1,0-.2s0,0,0,0,0,0,0,0,0,0,0,0h0c0,0-.2,0-.2,0v-.3h0v.2h.1s0,0,0,0c0,0,0,0,0,0,0,0,0-.1.2-.1s.2,0,.2.2,0,.2-.1.2Z"/>
      <path class="st26" d="M-66.8,14.4c-.2,0-.2,0-.2-.2s0-.2.2-.2.2,0,.2.2,0,.2-.2.2ZM-66.8,14.2c-.1,0-.2,0-.2,0s0,0,.2,0c.1,0,.2,0,.2,0s0,0-.2,0Z"/>
      <path class="st26" d="M-67,14c0,0-.1,0-.1-.1s0-.1.1-.1h0c0,0,.1,0,.1.1s0,.1-.1.1h0ZM-67.1,13.6h0c0,0,.5.3.5.3h0c0,0-.5-.3-.5-.3ZM-67,13.9s0,0,0,0,0,0,0,0h0s0,0,0,0,0,0,0,0h0ZM-66.7,13.7c0,0-.1,0-.1-.1s0-.1.1-.1h0c0,0,.1,0,.1.1s0,.1-.1.1h0ZM-66.7,13.7s0,0,0,0,0,0,0,0h0s0,0,0,0,0,0,0,0h0Z"/>
    </g>
    <g>
      <path class="st26" d="M-62,14.9l-.3-.2h0c0-.1.3-.1.3-.1h0c0,0,0,0,0,0h0c0,0,0,0,0,0h0c0,0,0,0,0,0v.2h0ZM-62.2,14.6h0s.2.1.2.1h0c0-.1-.2-.1-.2-.1Z"/>
      <path class="st26" d="M-62.1,14.4c-.2,0-.2,0-.2-.2s0-.2.2-.2.2,0,.2.2,0,.2-.2.2ZM-62.1,14.1c-.1,0-.2,0-.2,0s0,0,.2,0c.1,0,.2,0,.2,0s0,0-.2,0Z"/>
      <path class="st26" d="M-62.2,14c0,0-.1,0-.1-.1s0-.1.1-.1h0c0,0,.1,0,.1.1s0,.1-.1.1h0ZM-62.3,13.6h0c0,0,.5.3.5.3h0c0,0-.5-.3-.5-.3ZM-62.2,13.9s0,0,0,0,0,0,0,0h0s0,0,0,0,0,0,0,0h0ZM-62,13.7c0,0-.1,0-.1-.1s0-.1.1-.1h0c0,0,.1,0,.1.1s0,.1-.1.1h0ZM-62,13.7s0,0,0,0,0,0,0,0h0s0,0,0,0,0,0,0,0h0Z"/>
    </g>
    <g>
      <path class="st26" d="M-57.3,14.8h0c0-.1,0-.1,0-.2s0,0,0,0,0,0,0,0h0s0,0,0,0h0c0,0,0-.1,0-.1,0,0,0,0,0,0s0,0,0,0h0c0,0-.1,0-.1,0s0-.2.1-.2,0,0,0,0h0c0,0,0-.1.1-.1s.1,0,.1.2,0,.2-.1.2Z"/>
      <path class="st26" d="M-57.4,14.4c-.2,0-.2,0-.2-.2s0-.2.2-.2.2,0,.2.2c0,.1,0,.2-.2.2ZM-57.4,14.1c-.1,0-.2,0-.2,0s0,0,.2,0c.1,0,.2,0,.2,0s0,0-.2,0Z"/>
      <path class="st26" d="M-57.5,14c0,0-.1,0-.1-.1s0-.1.1-.1h0c0,0,.1,0,.1.1s0,.1-.1.1h0ZM-57.6,13.6h0c0,0,.5.3.5.3h0c0,0-.5-.3-.5-.3ZM-57.5,13.9s0,0,0,0,0,0,0,0h0s0,0,0,0,0,0,0,0h0ZM-57.2,13.7c0,0-.1,0-.1-.1s0-.1.1-.1h0c0,0,.1,0,.1.1s0,.1-.1.1h0ZM-57.2,13.7s0,0,0,0,0,0,0,0h0s0,0,0,0,0,0,0,0h0Z"/>
    </g>
    <g>
      <path class="st26" d="M-52.5,14.8l-.2-.2s0,0-.1,0,0,0,0,0,0,0,0,0h0c0,0-.2,0-.2,0s0-.2.1-.2,0,0,.2.1h0c0,0,0,0,0,0v-.2h0v.3h0Z"/>
      <path class="st26" d="M-52.6,14.4c-.2,0-.2,0-.2-.2s0-.2.2-.2.2,0,.2.2c0,.1,0,.2-.2.2ZM-52.6,14.2c-.1,0-.2,0-.2,0s0,0,.2,0c.1,0,.2,0,.2,0s0,0-.2,0Z"/>
      <path class="st26" d="M-52.8,14c0,0-.1,0-.1-.1s0-.1.1-.1h0c0,0,.1,0,.1.1s0,.1-.1.1h0ZM-52.9,13.6h0c0,0,.5.3.5.3h0c0,0-.5-.3-.5-.3ZM-52.7,13.9s0,0,0,0,0,0,0,0h0s0,0,0,0,0,0,0,0h0ZM-52.5,13.7c0,0-.1,0-.1-.1s0-.1.1-.1h0c0,0,.1,0,.1.1s0,.1-.1.1h0ZM-52.5,13.7s0,0,0,0,0,0,0,0h0s0,0,0,0,0,0,0,0h0Z"/>
    </g>
    <g>
      <path class="st26" d="M-47.6,14.6h0c0,0-.3,0-.3,0h0s0,0,0,0h0c0,0,0-.1,0-.1h0c0,0,.5,0,.5,0Z"/>
      <path class="st26" d="M-47.9,14.5c-.2,0-.2,0-.2-.2s0-.2.2-.2.2,0,.2.2c0,.1,0,.2-.2.2ZM-47.9,14.2c-.1,0-.2,0-.2,0s0,0,.2,0c.1,0,.2,0,.2,0s0,0-.2,0Z"/>
      <path class="st26" d="M-48,14c0,0-.1,0-.1-.1s0-.1.1-.1h0c0,0,.1,0,.1.1s0,.1-.1.1h0ZM-48.1,13.7h0c0,0,.5.3.5.3h0c0,0-.5-.3-.5-.3ZM-48,14s0,0,0,0,0,0,0,0h0s0,0,0,0,0,0,0,0h0ZM-47.8,13.8c0,0-.1,0-.1-.1s0-.1.1-.1h0c0,0,.1,0,.1.1s0,.1-.1.1h0ZM-47.7,13.7s0,0,0,0,0,0,0,0h0s0,0,0,0,0,0,0,0h0Z"/>
    </g>
  </g>
  <line class="st11" x1="-61.9" y1="-13.1" x2="-63.2" y2="-13.1"/>
  <g>
    <path class="st30" d="M-62.7-13.4s0,0,0,0,0,0,0,.1,0,.1,0,.1,0,0,0,0h0c0,0,0,0-.1,0s-.1,0-.1-.1,0-.1.1-.1,0,0,.1,0h0Z"/>
    <path class="st30" d="M-62.6-13.5v.2h0v-.2h.1v.2h0v-.2h0v.2h-.1v-.2h0v.2h0v-.2h0Z"/>
    <path class="st30" d="M-62.3-13.5h0c0,.1,0,.1,0,.1h0c0-.1,0-.1,0-.1h0v.2h0c0-.1,0-.2,0-.2h0Z"/>
    <path class="st30" d="M-62.1-13.5h0c0,.1,0,.1,0,.1h.1c0-.1,0-.1,0-.1h-.1c0,.1.1.2.1.2h-.1c0-.1,0,0,0,0h0c0,0,0,0,0,0v-.2Z"/>
  </g>
  <line class="st11" x1="-61.9" y1="-13.8" x2="-63.2" y2="-13.8"/>
  <g>
    <path class="st30" d="M-63.1-14.1c0,0,0-.1,0-.1s0,0,0,.1,0,.1,0,.1,0,0,0-.1ZM-62.9-14.1c0,0,0-.1,0-.1s0,0,0,.1,0,.1,0,.1,0,0,0-.1Z"/>
    <path class="st30" d="M-62.8-14.1c0,0,0-.1,0-.1s0,0,0,.1,0,.1,0,.1,0,0,0-.1ZM-62.7-14.1c0,0,0-.1,0-.1s0,0,0,.1,0,.1,0,.1,0,0,0-.1Z"/>
    <path class="st30" d="M-62.6-14.1c0,0,0-.1,0-.1s0,0,0,.1,0,.1,0,.1,0,0,0-.1ZM-62.5-14.1c0,0,0-.1,0-.1s0,0,0,.1,0,.1,0,.1,0,0,0-.1Z"/>
    <path class="st30" d="M-62.4-14.1c0,0,0-.1,0-.1s0,0,0,.1,0,.1,0,.1,0,0,0-.1ZM-62.3-14.1c0,0,0-.1,0-.1s0,0,0,.1,0,.1,0,.1,0,0,0-.1Z"/>
    <path class="st30" d="M-62.1-14.1h0v.2h0v-.2h0s0,0,0,0h0c0,0,0,0,0,0s0,0,0,0h0s0,0,0,0c0,0,0,0,0,0h0s0,0,0,0h0Z"/>
    <path class="st30" d="M-62-14h0c0-.1,0-.1,0-.2s0,0,0,0,0,0,0,0h0s0,0,0,0,0,0,0,0,0,0,0,0h0c0,0,.1,0,.1,0h0s-.2,0-.2,0h0Z"/>
  </g>
  <g>
    <path class="st30" d="M-64.2-12.7c0-.1,0-.2.1-.2s.1,0,.1.2c0,.1,0,.2-.1.2s-.1,0-.1-.2ZM-64-12.7c0,0,0-.1,0-.1s0,0,0,.1,0,.1,0,.1,0,0,0-.1Z"/>
    <path class="st30" d="M-63.9-12.5s0,0,0,.1h0s0,0,0-.1h0s0,0,0,0h0Z"/>
    <path class="st30" d="M-63.7-12.7c0-.1,0-.2.1-.2s.1,0,.1.2c0,.1,0,.2-.1.2s-.1,0-.1-.2ZM-63.5-12.7c0,0,0-.1,0-.1s0,0,0,.1,0,.1,0,.1,0,0,0-.1Z"/>
    <path class="st30" d="M-63.3-12.5s0,0,0,.1h0s0,0,0-.1h0s0,0,0,0h0Z"/>
    <path class="st30" d="M-63-12.8h0s-.2,0-.2,0h0c0,0,.2,0,.2,0h0c0,0-.1.3-.1.3h0v-.3Z"/>
    <path class="st30" d="M-62.9-12.7c0-.1,0-.2.1-.2s.1,0,.1,0h0s0,0,0,0c0,0,0,0,0,0h0s0,0,0,0c0,0,0,0,0,.1s0,.1-.1.1c0,0-.1,0-.1-.2ZM-62.7-12.6s0,0,0,0,0,0,0,0,0,0,0,0,0,0,0,0Z"/>
    <path class="st30" d="M-62.6-12.5s0,0,0,.1h0s0,0,0-.1h0s0,0,0,0h0Z"/>
    <path class="st30" d="M-62.4-12.6s0,0,0,0h0s0,0,0,0c0,0,0,0,.1,0s.1,0,.1,0,0,0,0,0h0s0,0,0,0,0,0-.1,0-.1,0-.1,0ZM-62.2-12.6s0,0,0,0,0,0,0,0,0,0,0,0,0,0,0,0ZM-62.3-12.7s0,0,0,0,0,0,0,0,0,0,0,0,0,0,0,0Z"/>
    <path class="st30" d="M-62.1-12.6s0,0,0,0h0s0,0,0,0c0,0,0,0,.1,0s.1,0,.1,0,0,0,0,0h0s0,0,0,0,0,0-.1,0-.1,0-.1,0ZM-62-12.6s0,0,0,0,0,0,0,0,0,0,0,0,0,0,0,0ZM-62-12.7s0,0,0,0,0,0,0,0,0,0,0,0,0,0,0,0Z"/>
  </g>
  <line class="st11" x1="-61.9" y1="-11.6" x2="-63.2" y2="-11.6"/>
  <g>
    <path class="st30" d="M-62.5-12.1h0c0,0,0,0,0,0s0,0,0,0h0c0,.1,0,.1,0,.1h0c0,0,0,0,0,0h0c0,0,0,0,0,0v-.2ZM-62.5-12s0,0,0,0,0,0,0,0h0c0,0,0,0,0,0Z"/>
    <path class="st30" d="M-62.2-12.1s0,0,0,.1,0,.1,0,.1,0,0,0,0h0s0,0,0,0h0c0,0,0,.1-.1.1s-.1,0-.1-.1,0-.1.1-.1,0,0,.1,0h0s0,0,0,0Z"/>
    <path class="st30" d="M-62.1-12.1h0c0,0,0,0,0,0s0,0,0,0h0s0,0,0,0,0,0,0,0h0v-.2ZM-62-12s0,0,0,0,0,0,0,0h0c0,0,0,0,0,0ZM-62-11.9s0,0,0,0,0,0,0,0h0c0,0,0,0,0,0Z"/>
  </g>
  <g>
    <path class="st30" d="M-64-11.1h0v-.2h0s0,0,0,0h0c0,0,0,0,0-.1h0v.3Z"/>
    <path class="st30" d="M-63.9-11.2h0s0,0,0,0,0,0,0,0,0,0,0,0h0s0,0,0,0c0,0,0,0,0,0s0,0,0,0,0,0,0,0h0c0,0,0,0,.1,0s.1,0,.1,0,0,0,0,0h0s0,0,0,0,0,0-.1,0-.1,0-.1,0Z"/>
    <path class="st30" d="M-63.5-11.1s0,0,0,.1h0s0,0,0-.1h0s0,0,0,0h0Z"/>
    <path class="st30" d="M-63.3-11.1h0v-.2h0s0,0,0,0h0c0,0,0,0,0-.1h0v.3Z"/>
    <path class="st30" d="M-63.2-11.2h0s0,0,0,0,0,0,0,0,0,0,0,0h0s0,0,0,0c0,0,0,0,0,0s0,0,0,0,0,0,0,0h0c0,0,0,0,.1,0s.1,0,.1,0,0,0,0,0h0s0,0,0,0,0,0-.1,0-.1,0-.1,0Z"/>
    <path class="st30" d="M-62.8-11.1s0,0,0,.1h0s0,0,0-.1h0s0,0,0,0h0Z"/>
    <path class="st30" d="M-62.7-11.1h.1c0-.1,0-.1,0-.2s0,0,0,0,0,0,0,0h0c0,0,0-.1.1-.1s.1,0,.1,0,0,0,0,.1h0s.1,0,.1,0h0c0,0-.2,0-.2,0h0Z"/>
    <path class="st30" d="M-62.4-11.2h0s0,0,0,0,0,0,0,0,0,0,0,0,0,0,0,0h0s0-.2,0-.2h.2c0,0-.1,0-.1,0h0c0,0,0,0,0,0,0,0,0,0,0,0,0,0,0,0,0,.1s0,.1-.1.1-.1,0-.1,0Z"/>
    <path class="st30" d="M-62.1-11.2h0s0,0,0,0,0,0,0,0,0,0,0,0,0,0,0,0h0s0-.2,0-.2h.2c0,0-.1,0-.1,0h0c0,0,0,0,0,0,0,0,0,0,0,0,0,0,0,0,0,.1s0,.1-.1.1-.1,0-.1,0Z"/>
  </g>
  <rect x="-87.5" y="-23.5" width="2.1" height="15.1" transform="translate(-102.4 70.4) rotate(90)"/>
  <rect class="st23" x="-70.4" y="-23.5" width="2.1" height="15.1" transform="translate(-85.4 53.4) rotate(90)"/>
  <rect class="st12" x="-53.4" y="-23.5" width="2.1" height="15.1" transform="translate(-68.4 36.4) rotate(90)"/>
  <line class="st11" x1="-44.9" y1="-9.5" x2="-94.1" y2="-9.5"/>
  <g>
    <line class="st11" x1="-78.9" y1="-13.1" x2="-80.2" y2="-13.1"/>
    <g>
      <path class="st30" d="M-79.7-13.4s0,0,0,0,0,0,0,.1,0,.1,0,.1,0,0,0,0h0c0,0,0,0-.1,0s-.1,0-.1-.1,0-.1.1-.1,0,0,.1,0h0Z"/>
      <path class="st30" d="M-79.6-13.5v.2h0v-.2h.1v.2h0v-.2h0v.2h-.1v-.2h0v.2h0v-.2h0Z"/>
      <path class="st30" d="M-79.3-13.5h0c0,.1,0,.1,0,.1h0c0-.1,0-.1,0-.1h0v.2h0c0-.1,0-.2,0-.2h0Z"/>
      <path class="st30" d="M-79.1-13.5h0c0,.1,0,.1,0,.1h.1c0-.1,0-.1,0-.1h-.1c0,.1.1.2.1.2h-.1c0-.1,0,0,0,0h0c0,0,0,0,0,0v-.2Z"/>
    </g>
    <g>
      <path d="M-81.6-12.8h0s-.2,0-.2,0h0c0,0,.2,0,.2,0h0c0,0-.1.3-.1.3h0v-.3Z"/>
      <path d="M-81.5-12.6h0s0,0,0,0,0,0,0,0,0,0,0,0,0,0,0,0h0s0-.2,0-.2h.2c0,0-.1,0-.1,0h0c0,0,0,0,0,0,0,0,0,0,0,0,0,0,0,0,0,.1s0,.1-.1.1-.1,0-.1,0Z"/>
      <path d="M-81.1-12.5s0,0,0,.1h0s0,0,0-.1h0s0,0,0,0h0Z"/>
      <path d="M-81-12.7c0-.1,0-.2.1-.2s.1,0,.1,0h0s0,0,0,0c0,0,0,0,0,0h0s0,0,0,0c0,0,0,0,0,.1s0,.1-.1.1c0,0-.1,0-.1-.2ZM-80.8-12.6s0,0,0,0,0,0,0,0,0,0,0,0,0,0,0,0Z"/>
      <path d="M-80.7-12.6s0,0,0,0h0s0,0,0,0c0,0,0,0,.1,0s.1,0,.1,0,0,0,0,0h0s0,0,0,0,0,0-.1,0-.1,0-.1,0ZM-80.5-12.6s0,0,0,0,0,0,0,0,0,0,0,0,0,0,0,0ZM-80.5-12.7s0,0,0,0,0,0,0,0,0,0,0,0,0,0,0,0Z"/>
      <path d="M-80.3-12.5s0,0,0,.1h0s0,0,0-.1h0s0,0,0,0h0Z"/>
      <path d="M-80.2-12.7c0-.1,0-.2.1-.2s.1,0,.1,0h0s0,0,0,0c0,0,0,0,0,0h0s0,0,0,0c0,0,0,0,0,.1s0,.1-.1.1c0,0-.1,0-.1-.2ZM-80-12.6s0,0,0,0,0,0,0,0,0,0,0,0,0,0,0,0Z"/>
      <path d="M-79.7-12.8h0s-.2,0-.2,0h0c0,0,.2,0,.2,0h0c0,0-.1.3-.1.3h0v-.3Z"/>
      <path d="M-79.6-12.5s0,0,0,.1h0s0,0,0-.1h0s0,0,0,0h0Z"/>
      <path d="M-79.2-12.7c0,.1,0,.2-.1.2s-.1,0-.1,0h0s0,0,0,0c0,0,0,0,0,0h0s0,0,0,0c0,0,0,0,0-.1s0-.1.1-.1c0,0,.1,0,.1.2ZM-79.4-12.7s0,0,0,0,0,0,0,0c0,0,0,0,0,0s0,0,0,0Z"/>
      <path d="M-79.2-12.7c0-.1,0-.2.1-.2s.1,0,.1.2c0,.1,0,.2-.1.2s-.1,0-.1-.2ZM-79-12.7c0,0,0-.1,0-.1s0,0,0,.1c0,0,0,.1,0,.1s0,0,0-.1Z"/>
    </g>
    <line class="st11" x1="-78.9" y1="-11.6" x2="-80.2" y2="-11.6"/>
    <g>
      <path class="st30" d="M-79.6-12.1h0c0,0,0,0,0,0s0,0,0,0h0c0,.1,0,.1,0,.1h0c0,0,0,0,0,0h0c0,0,0,0,0,0v-.2ZM-79.5-12s0,0,0,0,0,0,0,0h0c0,0,0,0,0,0Z"/>
      <path class="st30" d="M-79.2-12.1s0,0,0,.1,0,.1,0,.1,0,0,0,0h0s0,0,0,0h0c0,0,0,.1-.1.1s-.1,0-.1-.1,0-.1.1-.1,0,0,.1,0h0s0,0,0,0Z"/>
      <path class="st30" d="M-79.1-12.1h0c0,0,0,0,0,0s0,0,0,0h0s0,0,0,0,0,0,0,0h0v-.2ZM-79-12s0,0,0,0,0,0,0,0h0c0,0,0,0,0,0ZM-79-11.9s0,0,0,0,0,0,0,0h0c0,0,0,0,0,0Z"/>
    </g>
    <g>
      <path d="M-80.2-11.3c0-.1,0-.2.1-.2s.1,0,.1.2c0,.1,0,.2-.1.2s-.1,0-.1-.2ZM-80-11.3c0,0,0-.1,0-.1s0,0,0,.1c0,0,0,.1,0,.1s0,0,0-.1Z"/>
      <path d="M-79.8-11.1s0,0,0,.1h0s0,0,0-.1h0s0,0,0,0h0Z"/>
      <path d="M-79.7-11.3c0-.1,0-.2.1-.2s.1,0,.1.2c0,.1,0,.2-.1.2s-.1,0-.1-.2ZM-79.5-11.3c0,0,0-.1,0-.1s0,0,0,.1,0,.1,0,.1,0,0,0-.1Z"/>
      <path d="M-79.3-11.1s0,0,0,.1h0s0,0,0-.1h0s0,0,0,0h0Z"/>
      <path d="M-79.2-11.3c0-.1,0-.2.1-.2s.1,0,.1.2c0,.1,0,.2-.1.2s-.1,0-.1-.2ZM-79-11.3c0,0,0-.1,0-.1s0,0,0,.1,0,.1,0,.1,0,0,0-.1Z"/>
    </g>
    <line class="st11" x1="-78.9" y1="-13.8" x2="-80.2" y2="-13.8"/>
    <g>
      <path class="st30" d="M-80.2-14.1c0,0,0-.1,0-.1s0,0,0,.1,0,.1,0,.1,0,0,0-.1ZM-80-14.1c0,0,0-.1,0-.1s0,0,0,.1,0,.1,0,.1,0,0,0-.1Z"/>
      <path class="st30" d="M-80-14.1c0,0,0-.1,0-.1s0,0,0,.1,0,.1,0,.1,0,0,0-.1ZM-79.8-14.1c0,0,0-.1,0-.1s0,0,0,.1,0,.1,0,.1,0,0,0-.1Z"/>
      <path class="st30" d="M-79.7-14.1c0,0,0-.1,0-.1s0,0,0,.1,0,.1,0,.1,0,0,0-.1ZM-79.6-14.1c0,0,0-.1,0-.1s0,0,0,.1,0,.1,0,.1,0,0,0-.1Z"/>
      <path class="st30" d="M-79.5-14.1c0,0,0-.1,0-.1s0,0,0,.1,0,.1,0,.1,0,0,0-.1ZM-79.4-14.1c0,0,0-.1,0-.1s0,0,0,.1,0,.1,0,.1,0,0,0-.1Z"/>
      <path class="st30" d="M-79.3-14.1c0,0,0-.1,0-.1s0,0,0,.1,0,.1,0,.1,0,0,0-.1ZM-79.2-14.1c0,0,0-.1,0-.1s0,0,0,.1,0,.1,0,.1,0,0,0-.1Z"/>
      <path class="st30" d="M-79.1-14.1c0,0,0-.1,0-.1s0,0,0,.1,0,.1,0,.1,0,0,0-.1ZM-78.9-14.1c0,0,0-.1,0-.1s0,0,0,.1,0,.1,0,.1,0,0,0-.1Z"/>
    </g>
  </g>
  <g>
    <line class="st11" x1="-44.8" y1="-13.1" x2="-46.2" y2="-13.1"/>
    <g>
      <path class="st30" d="M-45.7-13.4s0,0,0,0,0,0,0,.1,0,.1,0,.1,0,0,0,0h0c0,0,0,0-.1,0s-.1,0-.1-.1,0-.1.1-.1,0,0,.1,0h0Z"/>
      <path class="st30" d="M-45.5-13.5v.2h0v-.2h.1v.2h0v-.2h0v.2h-.1v-.2h0v.2h0v-.2h0Z"/>
      <path class="st30" d="M-45.2-13.5h0c0,.1,0,.1,0,.1h0c0-.1,0-.1,0-.1h0v.2h0c0-.1,0-.2,0-.2h0Z"/>
      <path class="st30" d="M-45-13.5h0c0,.1,0,.1,0,.1h.1c0-.1,0-.1,0-.1h-.1c0,.1.1.2.1.2h-.1c0-.1,0,0,0,0h0c0,0,0,0,0,0v-.2Z"/>
    </g>
    <g>
      <path class="st30" d="M-46.7-12.7c0-.1,0-.2.1-.2s.1,0,.1.2c0,.1,0,.2-.1.2s-.1,0-.1-.2ZM-46.5-12.7c0,0,0-.1,0-.1s0,0,0,.1,0,.1,0,.1,0,0,0-.1Z"/>
      <path class="st30" d="M-46.3-12.5s0,0,0,.1h0s0,0,0-.1h0s0,0,0,0h0Z"/>
      <path class="st30" d="M-46.2-12.7c0-.1,0-.2.1-.2s.1,0,.1.2c0,.1,0,.2-.1.2s-.1,0-.1-.2ZM-46-12.7c0,0,0-.1,0-.1s0,0,0,.1,0,.1,0,.1,0,0,0-.1Z"/>
      <path class="st30" d="M-45.8-12.5s0,0,0,.1h0s0,0,0-.1h0s0,0,0,0h0Z"/>
      <path class="st30" d="M-45.6-12.7c0-.1,0-.2.1-.2s.1,0,.1.2c0,.1,0,.2-.1.2s-.1,0-.1-.2ZM-45.4-12.7c0,0,0-.1,0-.1s0,0,0,.1,0,.1,0,.1,0,0,0-.1Z"/>
      <path class="st30" d="M-45.3-12.5s0,0,0,.1h0s0,0,0-.1h0s0,0,0,0h0Z"/>
      <path class="st30" d="M-45.1-12.7c0-.1,0-.2.1-.2s.1,0,.1.2c0,.1,0,.2-.1.2s-.1,0-.1-.2ZM-44.9-12.7c0,0,0-.1,0-.1s0,0,0,.1,0,.1,0,.1,0,0,0-.1Z"/>
    </g>
    <line class="st11" x1="-44.8" y1="-11.6" x2="-46.2" y2="-11.6"/>
    <g>
      <path class="st30" d="M-45.5-12.1h0c0,0,0,0,0,0s0,0,0,0h0c0,.1,0,.1,0,.1h0c0,0,0,0,0,0h0c0,0,0,0,0,0v-.2ZM-45.4-12s0,0,0,0,0,0,0,0h0c0,0,0,0,0,0Z"/>
      <path class="st30" d="M-45.2-12.1s0,0,0,.1,0,.1,0,.1,0,0,0,0h0s0,0,0,0h0c0,0,0,.1-.1.1s-.1,0-.1-.1,0-.1.1-.1,0,0,.1,0h0s0,0,0,0Z"/>
      <path class="st30" d="M-45-12.1h0c0,0,0,0,0,0s0,0,0,0h0s0,0,0,0,0,0,0,0h0v-.2ZM-44.9-12s0,0,0,0,0,0,0,0h0c0,0,0,0,0,0ZM-44.9-11.9s0,0,0,0,0,0,0,0h0c0,0,0,0,0,0Z"/>
    </g>
    <g>
      <path class="st30" d="M-47.8-11.1h.1c0-.1,0-.1,0-.2s0,0,0,0,0,0,0,0h0c0,0,0-.1.1-.1s.1,0,.1,0,0,0,0,.1h0s.1,0,.1,0h0c0,0-.2,0-.2,0h0Z"/>
      <path class="st30" d="M-47.5-11.2h0s0,0,0,0,0,0,0,0,0,0,0,0,0,0,0,0h0s0-.2,0-.2h.2c0,0-.1,0-.1,0h0c0,0,0,0,0,0,0,0,0,0,0,0,0,0,0,0,0,.1,0,0,0,.1-.1.1s-.1,0-.1,0Z"/>
      <path class="st30" d="M-47.2-11.2h0s0,0,0,0,0,0,0,0,0,0,0,0,0,0,0,0h0s0-.2,0-.2h.2c0,0-.1,0-.1,0h0c0,0,0,0,0,0,0,0,0,0,0,0,0,0,0,0,0,.1s0,.1-.1.1-.1,0-.1,0Z"/>
      <path class="st30" d="M-46.9-11.1s0,0,0,.1h0s0,0,0-.1h0s0,0,0,0h0Z"/>
      <path class="st30" d="M-46.7-11.1h.1c0-.1,0-.1,0-.2s0,0,0,0,0,0,0,0h0c0,0,0-.1.1-.1s.1,0,.1,0,0,0,0,.1h0s.1,0,.1,0h0c0,0-.2,0-.2,0h0Z"/>
      <path class="st30" d="M-46.4-11.2h0s0,0,0,0,0,0,0,0,0,0,0,0,0,0,0,0h0s0-.2,0-.2h.2c0,0-.1,0-.1,0h0c0,0,0,0,0,0,0,0,0,0,0,0,0,0,0,0,0,.1s0,.1-.1.1-.1,0-.1,0Z"/>
      <path class="st30" d="M-46.1-11.2h0s0,0,0,0,0,0,0,0,0,0,0,0,0,0,0,0h0s0-.2,0-.2h.2c0,0-.1,0-.1,0h0c0,0,0,0,0,0,0,0,0,0,0,0,0,0,0,0,0,.1,0,0,0,.1-.1.1s-.1,0-.1,0Z"/>
      <path class="st30" d="M-45.8-11.1s0,0,0,.1h0s0,0,0-.1h0s0,0,0,0h0Z"/>
      <path class="st30" d="M-45.6-11.1h.1c0-.1,0-.1,0-.2s0,0,0,0,0,0,0,0h0c0,0,0-.1.1-.1s.1,0,.1,0,0,0,0,.1h0s.1,0,.1,0h0c0,0-.2,0-.2,0h0Z"/>
      <path class="st30" d="M-45.4-11.2h0s0,0,0,0,0,0,0,0,0,0,0,0,0,0,0,0h0s0-.2,0-.2h.2c0,0-.1,0-.1,0h0c0,0,0,0,0,0,0,0,0,0,0,0,0,0,0,0,0,.1,0,0,0,.1-.1.1s-.1,0-.1,0Z"/>
      <path class="st30" d="M-45.1-11.2h0s0,0,0,0,0,0,0,0,0,0,0,0,0,0,0,0h0s0-.2,0-.2h.2c0,0-.1,0-.1,0h0c0,0,0,0,0,0,0,0,0,0,0,0,0,0,0,0,0,.1s0,.1-.1.1-.1,0-.1,0Z"/>
    </g>
    <line class="st11" x1="-44.8" y1="-13.8" x2="-46.2" y2="-13.8"/>
    <g>
      <path class="st30" d="M-45.5-14.1h0v.2h0v-.2h0s0,0,0,0h0c0,0,0,0,0,0s0,0,0,0h0s0,0,0,0c0,0,0,0,0,0h0s0,0,0,0h0Z"/>
      <path class="st30" d="M-45.4-14.1h0v.2h0v-.2h0s0,0,0,0h0c0,0,0,0,0,0s0,0,0,0h0s0,0,0,0c0,0,0,0,0,0h0s0,0,0,0h0Z"/>
      <path class="st30" d="M-45.2-14.1h0v.2h0v-.2h0s0,0,0,0h0c0,0,0,0,0,0s0,0,0,0h0s0,0,0,0c0,0,0,0,0,0h0s0,0,0,0h0Z"/>
      <path class="st30" d="M-45.1-14.1h0v.2h0v-.2h0s0,0,0,0h0c0,0,0,0,0,0s0,0,0,0h0s0,0,0,0c0,0,0,0,0,0h0s0,0,0,0h0Z"/>
      <path class="st30" d="M-45-14.1h0v.2h0v-.2h0s0,0,0,0h0c0,0,0,0,0,0s0,0,0,0h0s0,0,0,0c0,0,0,0,0,0h0s0,0,0,0h0Z"/>
      <path class="st30" d="M-44.8-14.1h0v.2h0v-.2h0s0,0,0,0h0c0,0,0,0,0,0s0,0,0,0h0s0,0,0,0c0,0,0,0,0,0h0s0,0,0,0h0Z"/>
    </g>
  </g>
</svg>