<?xml version="1.0" encoding="UTF-8"?>
<svg id="Layer_1" data-name="Layer 1" xmlns="http://www.w3.org/2000/svg" viewBox="0 0 35.84 14.7">
  <defs>
    <style>
      .cls-1 {
        fill: #fff;
      }
    </style>
  </defs>
  <path class="cls-1" d="M7.69,0c7.78,0,7.78,13.75,0,13.75h-1.85c-7.79,0-7.79-13.75-.01-13.75h1.86ZM6.23,10.94h1.04c4.41,0,4.41-8.14,0-8.14h-1.04c-4.39,0-4.39,8.14,0,8.14Z"/>
  <path class="cls-1" d="M19.5.02c4.36,0,4.76,7.8.64,8.14l5,6.54h-3.11l-5-6.53v5.44h-2.95v-3.37l2.86-2.07h-2.86V.02h5.43-.01ZM17.03,5.46h1.98c1.44,0,1.36-2.74-.15-2.74h-1.83v2.74Z"/>
  <path class="cls-1" d="M29.67,13.63C21.38,13.63,21.38.14,29.67.14h6.17v2.71l-2.95,2.75v-2.75h-3.22c-4.41,0-4.41,8.09,0,8.09h3.22l-1.81,2.69h-1.41Z"/>
</svg>