<?xml version="1.0" encoding="UTF-8"?>
<svg id="Layer_1" xmlns="http://www.w3.org/2000/svg" version="1.1" xmlns:xlink="http://www.w3.org/1999/xlink" viewBox="0 0 219.7 90.1">
  <!-- Generator: Adobe Illustrator 29.3.1, SVG Export Plug-In . SVG Version: 2.1.0 Build 151)  -->
  <defs>
    <style>
      .st0 {
        fill: #fff;
      }

      .st1 {
        fill: none;
      }

      .st2 {
        clip-path: url(#clippath);
      }
    </style>
    <clipPath id="clippath">
      <rect class="st1" x="0" y="0" width="219.7" height="90.1"/>
    </clipPath>
  </defs>
  <g class="st2">
    <image width="230" height="130" transform="translate(-5 -19.9)" xlink:href="hero_section_logo-1.png"/>
  </g>
  <g>
    <path class="st0" d="M72.2,45c8.4-8.5,14.4-17.5,25.8-17.5v10.5s-13.6,0-13.6,0c-1.2,0-2.1.9-2.1,2.1v22.4h-10.4l.3-17.4ZM48.5,37.9h13.6v-10.5c-11.4,0-17.4,9.1-25.8,17.5l-.3,17.4h10.4v-22.4c0-1.2.9-2.1,2.1-2.1ZM62.1,27.4v22.4c0,1.2-.9,2.1-2.1,2.1h-13.6v10.5c11.4,0,17.4-9.1,25.8-17.5l.3-17.4h-10.4ZM110.1,38h13.6v-10.5c-6.5,0-11.2.6-15.7,2.8-3.3,1.6-6.5,4-10.1,7.7v7c0,0,0,7,0,7,3.6,3.6,6.7,6.1,10.1,7.7,4.4,2.1,9.2,2.8,15.7,2.8v-10.5h-13.6c-1.2,0-2.1-.9-2.1-2.1v-9.8c0-1.2.9-2.1,2.1-2.1Z"/>
    <g>
      <path class="st0" d="M134.7,47.1l-.9,2.7h-.7l2.7-7.3h.9l2.6,7.3h-.7l-1-2.7h-2.9ZM137.5,46.6l-1.2-3.6-1.3,3.6h2.5Z"/>
      <path class="st0" d="M147.5,44.6c0,1.3-.8,2-1.9,2.1-.3,0-.6,0-1,0h-1.4v3.1h-.7v-7.3h2c.4,0,.7,0,1,0,1.1.1,1.9.8,1.9,2ZM146.8,44.6c0-.9-.5-1.4-1.2-1.5-.2,0-.5,0-.9,0h-1.4v3.1h1.4c.3,0,.6,0,.9,0,.7-.1,1.2-.6,1.2-1.5Z"/>
      <path class="st0" d="M149,48.3c0,.2,0,.4,0,.6,0,.4.2.5.7.4v.5c-.2,0-.3,0-.5,0-.4,0-.8-.1-.8-.8,0-.2,0-.4,0-.8v-6.3h.7v6.3Z"/>
      <path class="st0" d="M154.2,48.8l-.3.6c-.4.4-.9.6-1.6.6-1,0-1.8-.5-1.8-1.6s1.2-1.9,3.2-1.9h.4v-.2c0-.3,0-.5,0-.7,0-.6-.4-1-1.3-1s-1.3.4-1.4,1.3h-.7c0-1.1.9-1.8,2.1-1.8s1.8.6,1.9,1.5c0,.2,0,.5,0,.7v2c0,.5,0,.9.1,1.6h-.7v-1ZM154.2,47.7v-.6c-1.6-.1-2.9.3-2.9,1.3s.4,1.1,1.3,1.1,1.6-.7,1.6-1.8Z"/>
      <path class="st0" d="M160.9,46h-.7c-.2-.9-.8-1.5-1.7-1.5s-1.9.8-1.9,2.4.9,2.5,1.8,2.5,1.5-.5,1.7-1.4h.7c-.3,1.2-1.2,1.9-2.4,1.9s-2.5-1-2.5-2.9,1.2-3,2.6-3,2.2.8,2.3,2Z"/>
      <path class="st0" d="M166.5,47.2h-4.3c0,1.7.9,2.2,1.8,2.2s1.5-.5,1.7-1.4h.7c-.3,1.3-1.3,1.9-2.4,1.9s-2.5-1-2.5-2.9,1.1-3,2.6-3,2.4,1.3,2.4,2.8,0,.2,0,.4ZM162.2,46.7h3.6c0-1.4-.8-2.1-1.7-2.1s-1.8.7-1.9,2.1Z"/>
      <path class="st0" d="M134.3,56.3v.7h1.1v.5h-1.1v5h-.7v-5h-.6v-.5h.6v-.6c0-.2,0-.4,0-.6,0-.8.6-1.2,1.3-1.2s.4,0,.6,0v.6c-.7-.1-1.2,0-1.2.6,0,.2,0,.4,0,.6Z"/>
      <path class="st0" d="M141.4,59.7c0,1.6-.9,2.9-2.7,2.9s-2.7-1.3-2.7-2.9.9-3,2.7-3,2.7,1.3,2.7,3ZM140.6,59.7c0-1.5-.8-2.4-2-2.4s-2,.9-2,2.4.8,2.4,2,2.4,2-.9,2-2.4Z"/>
      <path class="st0" d="M144.8,56.8v.5c-1,0-1.7.5-1.7,2v3.1h-.7v-5.6h.7v1l.4-.7c.3-.3.6-.4,1-.4s.2,0,.3,0Z"/>
      <path class="st0" d="M153.1,60.5c0,1.3-.9,1.9-1.9,2-.3,0-.6,0-.9,0h-2.2v-7.3h2c.3,0,.5,0,.9,0,1.1.1,1.8.7,1.8,1.8s-.5,1.4-1.3,1.6c1,.2,1.6.8,1.6,1.8ZM148.8,58.5h1.5c.2,0,.4,0,.6,0,.8,0,1.3-.5,1.3-1.3s-.6-1.2-1.3-1.3c-.2,0-.4,0-.6,0h-1.4v2.7ZM152.4,60.5c0-.9-.5-1.4-1.4-1.5-.2,0-.4,0-.6,0h-1.7v3h1.7c.2,0,.4,0,.5,0,.8,0,1.5-.5,1.5-1.5Z"/>
      <path class="st0" d="M158.8,62.5h-.7v-1.1l-.3.6c-.4.4-1,.6-1.6.6-1.1,0-1.8-.6-2-1.5,0-.3,0-.5,0-.9v-3.3h.7v3.1c0,.3,0,.6,0,.8,0,.7.6,1.3,1.4,1.3s1.7-.7,1.7-2.4v-2.8h.7v5.6Z"/>
      <path class="st0" d="M161.1,55.7c0,.2-.2.4-.4.4s-.4-.2-.4-.4.2-.4.4-.4.4.2.4.4ZM160.3,62.5v-5.6h.7v5.6h-.7Z"/>
      <path class="st0" d="M163.2,61.1c0,.2,0,.4,0,.6,0,.4.2.5.7.4v.5c-.2,0-.3,0-.5,0-.4,0-.8-.1-.8-.8,0-.2,0-.4,0-.8v-6.3h.7v6.3Z"/>
      <path class="st0" d="M169.5,62.5h-.7v-1l-.4.6c-.4.4-.9.6-1.6.6-1.6,0-2.5-1.2-2.5-2.9s1.3-3,2.7-3,1.1.2,1.4.5l.3.6v-3.1h.7v7.8ZM168.9,59.9v-.4c0-1.6-1-2.1-1.8-2.1s-2,.9-2,2.4.6,2.4,1.9,2.4,1.9-.6,1.9-2.3Z"/>
      <path class="st0" d="M175.6,59.9h-4.3c0,1.7.9,2.2,1.8,2.2s1.5-.5,1.7-1.4h.7c-.3,1.3-1.3,1.9-2.4,1.9s-2.5-1-2.5-2.9,1.1-3,2.6-3,2.4,1.3,2.4,2.8,0,.2,0,.3ZM171.4,59.4h3.6c0-1.4-.8-2.1-1.7-2.1s-1.8.7-1.9,2.1Z"/>
      <path class="st0" d="M179.2,56.8v.5c-1,0-1.7.5-1.7,2v3.1h-.7v-5.6h.7v1l.4-.7c.3-.3.6-.4,1-.4s.2,0,.3,0Z"/>
      <path class="st0" d="M183.6,58.5h-.7c-.2-.8-.6-1.2-1.4-1.2s-1.1.4-1.1,1,.5.9,1.3,1.1c1.3.3,1.9.8,1.9,1.7s-.8,1.5-2,1.5-2-.5-2.2-1.8h.7c.2,1,.8,1.3,1.5,1.3s1.3-.3,1.3-1-.4-.9-1.5-1.2c-1-.3-1.8-.6-1.8-1.6s.8-1.6,1.9-1.6,1.9.7,2,1.7Z"/>
    </g>
  </g>
</svg>