<?xml version="1.0" encoding="UTF-8"?>
<svg id="Layer_1" data-name="Layer 1" xmlns="http://www.w3.org/2000/svg" viewBox="0 0 219.68 90.13">
  <defs>
    <style>
      .cls-1 {
        fill: #fff;
      }
    </style>
  </defs>
  <path class="cls-1" d="M47.12,0c47.7,0,47.7,84.32,0,84.32h-11.35C-11.93,84.32-11.93,0,35.78,0h11.35ZM38.21,67.02h6.35c27.02,0,27.02-49.86,0-49.86h-6.35c-26.89,0-26.89,49.86,0,49.86Z"/>
  <path class="cls-1" d="M119.55.14c26.75,0,29.19,47.83,3.92,49.86l30.67,40.13h-19.06l-30.67-39.99v33.37h-18.11v-20.67l17.56-12.7h-17.56V.14h33.25ZM104.42,33.51h12.16c8.79,0,8.38-16.75-.95-16.75h-11.21s0,16.75,0,16.75Z"/>
  <path class="cls-1" d="M181.84,83.51c-50.81,0-50.81-82.7,0-82.7h37.84v16.62l-18.11,16.89v-16.89h-19.73c-27.02,0-27.02,49.59,0,49.59h19.73l-11.08,16.48h-8.65,0Z"/>
</svg>